# xmcd CD Database Entry
#
# Track frame offsets:
# 183
# 14930
# 25710
# 37338
# 44645
# 52300
# 65008
# 78288
# 91653
# 103933
# 112253
# 129350
# 138643
# 151568
# 165743
#
# Disc length: 2457 seconds
#
# Revision: 2
# Processed by: cddbd v1.5.1PL0 Copyright (c) Steve Scherf et al.
# Submitted via: RSJCDWriter_freedb_lib_OS/2 1.03
#
DISCID=d709970f
DTITLE=Jacob Stickelberger - Portrait
DYEAR=1900
DGENRE=country
TTITLE0='s geit verbii
TTITLE1=Schwarzi Chatz
TTITLE2=Bim Balkon
TTITLE3=Im Strandbad
TTITLE4=Ei Franke
TTITLE5=Brand im Gricht
TTITLE6=Bank vor dr Bank
TTITLE7=Käthi
TTITLE8=Skorpion
TTITLE9=Pfarrer Pfeuti
TTITLE10=Mi Dume
TTITLE11=Wältreis
TTITLE12=Im Louvre
TTITLE13=Larve
TTITLE14=Mi Frou
EXTD=GOLD CD 252
EXTT0=
EXTT1=
EXTT2=
EXTT3=
EXTT4=
EXTT5=
EXTT6=
EXTT7=
EXTT8=
EXTT9=
EXTT10=
EXTT11=
EXTT12=
EXTT13=
EXTT14=
PLAYORDER=
